<svg width="30" height="29" viewBox="0 0 30 29" fill="none" xmlns="http://www.w3.org/2000/svg">
<path d="M16.5 20.3333H15V14.5H13.5L16.5 20.3333ZM15 8.66667H15.015H15ZM28.5 14.5C28.5 16.2236 28.1508 17.9303 27.4724 19.5227C26.7939 21.1151 25.7995 22.562 24.5459 23.7808C23.2923 24.9995 21.8041 25.9663 20.1662 26.6259C18.5283 27.2855 16.7728 27.625 15 27.625C13.2272 27.625 11.4717 27.2855 9.83377 26.6259C8.19588 25.9663 6.70765 24.9995 5.45406 23.7808C4.20047 22.562 3.20606 21.1151 2.52763 19.5227C1.84919 17.9303 1.5 16.2236 1.5 14.5C1.5 11.019 2.92232 7.68064 5.45406 5.21922C7.9858 2.75781 11.4196 1.375 15 1.375C18.5804 1.375 22.0142 2.75781 24.5459 5.21922C27.0777 7.68064 28.5 11.019 28.5 14.5Z" stroke="#F4F4F9" stroke-width="2" stroke-linecap="round" stroke-linejoin="round"/>
</svg>
