<svg width="11" height="16" viewBox="0 0 11 16" fill="none" xmlns="http://www.w3.org/2000/svg">
<path d="M10.6542 7.29789C10.6422 7.28789 10.6262 7.28389 10.6142 7.27389L2.90022 0.291888C2.46622 -0.0981118 1.76222 -0.0981118 1.32822 0.291888C1.32422 0.295888 1.32222 0.299887 1.32022 0.303887C1.21513 0.390658 1.13026 0.499331 1.07153 0.622312C1.01281 0.745292 0.981645 0.879612 0.980224 1.01589L0.980225 14.9819C0.982467 15.1207 1.01515 15.2573 1.07598 15.382C1.1368 15.5068 1.22428 15.6166 1.33222 15.7039L1.32822 15.7079C1.5466 15.8966 1.82559 16.0005 2.11422 16.0005C2.40286 16.0005 2.68185 15.8966 2.90022 15.7079L10.6542 8.70989C10.7563 8.62277 10.8384 8.51453 10.8946 8.39264C10.9508 8.27076 10.9799 8.13812 10.9799 8.00389C10.9799 7.86965 10.9508 7.73702 10.8946 7.61513C10.8384 7.49324 10.7563 7.38501 10.6542 7.29789V7.29789Z" fill="black"/>
</svg>
