<svg width="17" height="10" viewBox="0 0 17 10" fill="none" xmlns="http://www.w3.org/2000/svg">
<path d="M9.68209 9.674C9.69209 9.662 9.69609 9.646 9.70609 9.634L16.6881 1.92C17.0781 1.486 17.0781 0.782 16.6881 0.348C16.6841 0.344 16.6801 0.342 16.6761 0.34C16.5893 0.234911 16.4806 0.150037 16.3577 0.0913105C16.2347 0.032584 16.1004 0.00142139 15.9641 0H1.99809C1.85932 0.00224243 1.72273 0.0349295 1.59797 0.0957527C1.47321 0.156576 1.36333 0.244052 1.27609 0.352L1.27209 0.348C1.08335 0.566371 0.979492 0.845367 0.979492 1.134C0.979492 1.42263 1.08335 1.70163 1.27209 1.92L8.27009 9.674C8.35721 9.77612 8.46545 9.85813 8.58734 9.91436C8.70922 9.97059 8.84186 9.99971 8.97609 9.99971C9.11033 9.99971 9.24296 9.97059 9.36485 9.91436C9.48674 9.85813 9.59497 9.77612 9.68209 9.674V9.674Z" fill="black"/>
</svg>
