<svg width="29" height="29" viewBox="0 0 29 29" fill="none" xmlns="http://www.w3.org/2000/svg">
<path d="M8.66667 7.20833V1.375V7.20833ZM20.3333 7.20833V1.375V7.20833ZM7.20833 13.0417H21.7917H7.20833ZM4.29167 27.625H24.7083C25.4819 27.625 26.2237 27.3177 26.7707 26.7707C27.3177 26.2237 27.625 25.4819 27.625 24.7083V7.20833C27.625 6.43479 27.3177 5.69292 26.7707 5.14594C26.2237 4.59896 25.4819 4.29167 24.7083 4.29167H4.29167C3.51812 4.29167 2.77625 4.59896 2.22927 5.14594C1.68229 5.69292 1.375 6.43479 1.375 7.20833V24.7083C1.375 25.4819 1.68229 26.2237 2.22927 26.7707C2.77625 27.3177 3.51812 27.625 4.29167 27.625Z" stroke="#F4F4F9" stroke-width="2" stroke-linecap="round" stroke-linejoin="round"/>
</svg>
