<svg width="21" height="20" viewBox="0 0 21 20" fill="none" xmlns="http://www.w3.org/2000/svg">
<path d="M6.66667 7.5835H6.67625H6.66667ZM10.5 7.5835H10.5096H10.5ZM14.3333 7.5835H14.3429H14.3333ZM7.625 13.3335H3.79167C3.28334 13.3335 2.79582 13.1316 2.43638 12.7721C2.07693 12.4127 1.875 11.9252 1.875 11.4168V3.75016C1.875 3.24183 2.07693 2.75432 2.43638 2.39487C2.79582 2.03543 3.28334 1.8335 3.79167 1.8335H17.2083C17.7167 1.8335 18.2042 2.03543 18.5636 2.39487C18.9231 2.75432 19.125 3.24183 19.125 3.75016V11.4168C19.125 11.9252 18.9231 12.4127 18.5636 12.7721C18.2042 13.1316 17.7167 13.3335 17.2083 13.3335H12.4167L7.625 18.1252V13.3335Z" stroke="black" stroke-width="2" stroke-linecap="round" stroke-linejoin="round"/>
</svg>
