<svg width="32" height="26" viewBox="0 0 32 26" fill="none" xmlns="http://www.w3.org/2000/svg">
<path d="M22.875 24.3333H30.1667V21.4167C30.1666 20.5074 29.8833 19.6208 29.356 18.8801C28.8288 18.1393 28.0839 17.5812 27.2248 17.2834C26.3658 16.9855 25.4353 16.9627 24.5627 17.2182C23.6901 17.4736 22.9187 17.9945 22.3558 18.7085L22.875 24.3333ZM22.875 24.3333H8.29167H22.875ZM22.875 24.3333V21.4167C22.875 20.46 22.6912 19.5456 22.3558 18.7085L22.875 24.3333ZM8.29167 24.3333H1V21.4167C1.00007 20.5074 1.28341 19.6208 1.81063 18.8801C2.33786 18.1393 3.08277 17.5812 3.94182 17.2834C4.80088 16.9855 5.73138 16.9627 6.60399 17.2182C7.4766 17.4736 8.24796 17.9945 8.81083 18.7085L8.29167 24.3333ZM8.29167 24.3333V21.4167C8.29167 20.46 8.47542 19.5456 8.81083 18.7085L8.29167 24.3333ZM8.81083 18.7085C9.35239 17.3551 10.287 16.1951 11.4942 15.3779C12.7013 14.5607 14.1256 14.124 15.5833 14.124C17.0411 14.124 18.4653 14.5607 19.6725 15.3779C20.8796 16.1951 21.8143 17.3551 22.3558 18.7085H8.81083ZM19.9583 5.375C19.9583 6.53532 19.4974 7.64812 18.6769 8.46859C17.8565 9.28906 16.7437 9.75 15.5833 9.75C14.423 9.75 13.3102 9.28906 12.4897 8.46859C11.6693 7.64812 11.2083 6.53532 11.2083 5.375C11.2083 4.21468 11.6693 3.10188 12.4897 2.28141C13.3102 1.46094 14.423 1 15.5833 1C16.7437 1 17.8565 1.46094 18.6769 2.28141C19.4974 3.10188 19.9583 4.21468 19.9583 5.375V5.375ZM28.7083 9.75C28.7083 10.5235 28.401 11.2654 27.8541 11.8124C27.3071 12.3594 26.5652 12.6667 25.7917 12.6667C25.0181 12.6667 24.2763 12.3594 23.7293 11.8124C23.1823 11.2654 22.875 10.5235 22.875 9.75C22.875 8.97645 23.1823 8.23459 23.7293 7.68761C24.2763 7.14062 25.0181 6.83333 25.7917 6.83333C26.5652 6.83333 27.3071 7.14062 27.8541 7.68761C28.401 8.23459 28.7083 8.97645 28.7083 9.75ZM8.29167 9.75C8.29167 10.5235 7.98438 11.2654 7.43739 11.8124C6.89041 12.3594 6.14855 12.6667 5.375 12.6667C4.60145 12.6667 3.85959 12.3594 3.3126 11.8124C2.76562 11.2654 2.45833 10.5235 2.45833 9.75C2.45833 8.97645 2.76562 8.23459 3.3126 7.68761C3.85959 7.14062 4.60145 6.83333 5.375 6.83333C6.14855 6.83333 6.89041 7.14062 7.43739 7.68761C7.98438 8.23459 8.29167 8.97645 8.29167 9.75Z" stroke="#F4F4F9" stroke-width="2" stroke-linecap="round" stroke-linejoin="round"/>
</svg>
