<svg width="29" height="29" viewBox="0 0 29 29" fill="none" xmlns="http://www.w3.org/2000/svg">
<path d="M10.125 27.625H18.875M1.375 14.5L4.29167 11.5833L1.375 14.5ZM4.29167 11.5833L14.5 1.375L24.7083 11.5833H4.29167ZM4.29167 11.5833V26.1667C4.29167 26.5534 4.44531 26.9244 4.7188 27.1979C4.99229 27.4714 5.36323 27.625 5.75 27.625H10.125L4.29167 11.5833ZM24.7083 11.5833L27.625 14.5L24.7083 11.5833ZM24.7083 11.5833V26.1667C24.7083 26.5534 24.5547 26.9244 24.2812 27.1979C24.0077 27.4714 23.6368 27.625 23.25 27.625H18.875L24.7083 11.5833ZM10.125 27.625C10.5118 27.625 10.8827 27.4714 11.1562 27.1979C11.4297 26.9244 11.5833 26.5534 11.5833 26.1667V20.3333C11.5833 19.9466 11.737 19.5756 12.0105 19.3021C12.284 19.0286 12.6549 18.875 13.0417 18.875H15.9583C16.3451 18.875 16.716 19.0286 16.9895 19.3021C17.263 19.5756 17.4167 19.9466 17.4167 20.3333V26.1667C17.4167 26.5534 17.5703 26.9244 17.8438 27.1979C18.1173 27.4714 18.4882 27.625 18.875 27.625H10.125Z" stroke="#F4F4F9" stroke-width="2" stroke-linecap="round" stroke-linejoin="round"/>
</svg>
