<svg width="28" height="26" viewBox="0 0 28 26" fill="none" xmlns="http://www.w3.org/2000/svg">
<path d="M1.34277 18.5L8.41286 11.8121C8.99107 11.2653 9.77518 10.9581 10.5928 10.9581C11.4104 10.9581 12.1945 11.2653 12.7727 11.8121L19.8428 18.5H1.34277ZM16.7594 15.5833L19.2045 13.2704C19.7827 12.7236 20.5668 12.4165 21.3844 12.4165C22.202 12.4165 22.9861 12.7236 23.5644 13.2704L26.0094 15.5833H16.7594ZM16.7594 6.83333H16.7749H16.7594ZM4.42611 24.3333H22.9261C23.7439 24.3333 24.5281 24.026 25.1063 23.4791C25.6846 22.9321 26.0094 22.1902 26.0094 21.4167V3.91667C26.0094 3.14312 25.6846 2.40125 25.1063 1.85427C24.5281 1.30729 23.7439 1 22.9261 1H4.42611C3.60836 1 2.8241 1.30729 2.24586 1.85427C1.66762 2.40125 1.34277 3.14312 1.34277 3.91667V21.4167C1.34277 22.1902 1.66762 22.9321 2.24586 23.4791C2.8241 24.026 3.60836 24.3333 4.42611 24.3333Z" stroke="#F4F4F9" stroke-width="2" stroke-linecap="round" stroke-linejoin="round"/>
</svg>
