<svg width="19" height="19" viewBox="0 0 19 19" fill="none" xmlns="http://www.w3.org/2000/svg">
<path d="M1.59219 18.8457C0.808278 18.8457 0.15332 18.1908 0.15332 17.4069V7.34194C0.15332 6.55803 0.808278 5.9045 1.59219 5.9045H3.75115C4.28324 5.9045 4.74922 6.20979 4.99769 6.64849C5.48295 6.35116 5.95982 6.17711 6.26667 5.99995C6.9897 5.58252 7.35702 4.40714 7.52864 3.18262C7.61448 2.57036 7.66012 1.98202 7.73509 1.4911C7.77258 1.24564 7.80979 1.02775 7.91057 0.790624C7.96082 0.67206 8.02711 0.541946 8.16592 0.408803C8.30472 0.27566 8.54814 0.15332 8.78078 0.15332C9.84687 0.15332 10.7208 0.570028 11.2795 1.20894C11.8381 1.84786 12.0992 2.64845 12.2396 3.44372C12.4689 4.74213 12.3819 5.84127 12.3379 6.62603H16.6854C17.8674 6.62603 18.8457 7.5987 18.8457 8.78079C18.8457 9.20004 18.7268 9.51566 18.5749 10.0063C18.4231 10.4969 18.217 11.0873 17.991 11.7202C17.5388 12.9862 17.0007 14.4213 16.649 15.4767C16.5085 15.8983 16.3258 16.3408 15.9962 16.7232C15.6666 17.1056 15.1355 17.4069 14.5321 17.4069H5.90465C5.65284 17.4069 5.41417 17.3548 5.18874 17.2735V17.4069C5.18874 18.1908 4.53519 18.8457 3.75128 18.8457H1.59219ZM1.59219 17.4069H3.75115V15.2479V8.78079V7.34194H1.59219V17.4069ZM5.90452 15.9694H14.532C14.7248 15.9694 14.7811 15.9316 14.9082 15.7841C15.0353 15.6367 15.1744 15.353 15.2858 15.0191C15.6527 13.9183 16.1913 12.487 16.6376 11.2374C16.8606 10.6126 17.0604 10.0336 17.2005 9.58093C17.3407 9.12821 17.4083 8.72089 17.4083 8.78079C17.4083 8.37019 17.096 8.06487 16.6854 8.06487H11.5926C11.1934 8.06638 10.8695 7.74108 10.871 7.34194C10.871 6.4929 11.0555 4.97653 10.8289 3.69218C10.7157 3.05001 10.5027 2.50861 10.1972 2.15928C9.97095 1.90039 9.65161 1.69693 9.16969 1.61884C9.09743 2.02906 9.04827 2.72797 8.95618 3.38476C8.76847 4.72391 8.41566 6.41906 6.9825 7.24649C6.44938 7.55429 5.93304 7.73364 5.62366 7.94696C5.31432 8.16028 5.18852 8.27472 5.18852 8.78079V15.2479C5.18852 15.6585 5.49382 15.9694 5.90443 15.9694H5.90452Z" fill="black"/>
</svg>
