<svg width="29" height="27" viewBox="0 0 29 27" fill="none" xmlns="http://www.w3.org/2000/svg">
<path d="M15.9583 19.3335V20.7918C15.9583 21.9522 15.4974 23.0649 14.6769 23.8854C13.8565 24.7059 12.7437 25.1668 11.5833 25.1668H5.75C4.58968 25.1668 3.47688 24.7059 2.65641 23.8854C1.83594 23.0649 1.375 21.9522 1.375 20.7918V6.2085C1.375 5.04817 1.83594 3.93538 2.65641 3.1149C3.47688 2.29443 4.58968 1.8335 5.75 1.8335H11.5833C12.7437 1.8335 13.8565 2.29443 14.6769 3.1149C15.4974 3.93538 15.9583 5.04817 15.9583 6.2085V7.66683M21.7917 19.3335L27.625 13.5002L21.7917 19.3335ZM27.625 13.5002L21.7917 7.66683L27.625 13.5002ZM27.625 13.5002H7.20833H27.625Z" stroke="#F4F4F9" stroke-width="2" stroke-linecap="round" stroke-linejoin="round"/>
</svg>
