<svg width="203" height="61" viewBox="0 0 203 61" fill="none" xmlns="http://www.w3.org/2000/svg">
    <path d="M89.6 48.4C86.7333 48.4 84.15 47.8167 81.85 46.65C79.5833 45.45 77.8 43.8 76.5 41.7C75.2333 39.6 74.6 37.2167 74.6 34.55C74.6 31.8833 75.2333 29.5 76.5 27.4C77.8 25.3 79.5833 23.6667 81.85 22.5C84.15 21.3 86.7333 20.7 89.6 20.7C92.4333 20.7 94.9 21.3 97 22.5C99.1333 23.6667 100.683 25.35 101.65 27.55L95.6 30.8C94.2 28.3333 92.1833 27.1 89.55 27.1C87.5167 27.1 85.8333 27.7667 84.5 29.1C83.1667 30.4333 82.5 32.25 82.5 34.55C82.5 36.85 83.1667 38.6667 84.5 40C85.8333 41.3333 87.5167 42 89.55 42C92.2167 42 94.2333 40.7667 95.6 38.3L101.65 41.6C100.683 43.7333 99.1333 45.4 97 46.6C94.9 47.8 92.4333 48.4 89.6 48.4ZM107.141 21.1H114.941V48H107.141V21.1ZM111.041 17.35C109.608 17.35 108.441 16.9333 107.541 16.1C106.641 15.2667 106.191 14.2333 106.191 13C106.191 11.7667 106.641 10.7333 107.541 9.9C108.441 9.06666 109.608 8.65 111.041 8.65C112.474 8.65 113.641 9.05 114.541 9.85C115.441 10.65 115.891 11.65 115.891 12.85C115.891 14.15 115.441 15.2333 114.541 16.1C113.641 16.9333 112.474 17.35 111.041 17.35ZM134.03 20.7C138.197 20.7 141.397 21.7 143.63 23.7C145.863 25.6667 146.98 28.65 146.98 32.65V48H139.68V44.65C138.213 47.15 135.48 48.4 131.48 48.4C129.413 48.4 127.613 48.05 126.08 47.35C124.58 46.65 123.43 45.6833 122.63 44.45C121.83 43.2167 121.43 41.8167 121.43 40.25C121.43 37.75 122.363 35.7833 124.23 34.35C126.13 32.9167 129.047 32.2 132.98 32.2H139.18C139.18 30.5 138.663 29.2 137.63 28.3C136.597 27.3667 135.047 26.9 132.98 26.9C131.547 26.9 130.13 27.1333 128.73 27.6C127.363 28.0333 126.197 28.6333 125.23 29.4L122.43 23.95C123.897 22.9167 125.647 22.1167 127.68 21.55C129.747 20.9833 131.863 20.7 134.03 20.7ZM133.43 43.15C134.763 43.15 135.947 42.85 136.98 42.25C138.013 41.6167 138.747 40.7 139.18 39.5V36.75H133.83C130.63 36.75 129.03 37.8 129.03 39.9C129.03 40.9 129.413 41.7 130.18 42.3C130.98 42.8667 132.063 43.15 133.43 43.15ZM163.589 21.7H170.489V27.7H163.789V48H155.989V27.7H151.839V21.7H155.989V20.5C155.989 17.4333 156.889 15 158.689 13.2C160.523 11.4 163.089 10.5 166.389 10.5C167.556 10.5 168.656 10.6333 169.689 10.9C170.756 11.1333 171.639 11.4833 172.339 11.95L170.289 17.6C169.389 16.9667 168.339 16.65 167.139 16.65C164.773 16.65 163.589 17.95 163.589 20.55V21.7ZM202.564 21.1L190.414 49.65C189.18 52.75 187.647 54.9333 185.814 56.2C184.014 57.4667 181.83 58.1 179.264 58.1C177.864 58.1 176.48 57.8833 175.114 57.45C173.747 57.0167 172.63 56.4167 171.764 55.65L174.614 50.1C175.214 50.6333 175.897 51.05 176.664 51.35C177.464 51.65 178.247 51.8 179.014 51.8C180.08 51.8 180.947 51.5333 181.614 51C182.28 50.5 182.88 49.65 183.414 48.45L183.514 48.2L171.864 21.1H179.914L187.464 39.35L195.064 21.1H202.564Z"
          fill="#B8DBD9"/>
    <path d="M15.65 48.6C12.8833 48.6 10.2 48.2333 7.6 47.5C5.03333 46.7333 2.96667 45.75 1.4 44.55L4.15 38.45C5.65 39.55 7.43333 40.4333 9.5 41.1C11.5667 41.7667 13.6333 42.1 15.7 42.1C18 42.1 19.7 41.7667 20.8 41.1C21.9 40.4 22.45 39.4833 22.45 38.35C22.45 37.5167 22.1167 36.8333 21.45 36.3C20.8167 35.7333 19.9833 35.2833 18.95 34.95C17.95 34.6167 16.5833 34.25 14.85 33.85C12.1833 33.2167 10 32.5833 8.3 31.95C6.6 31.3167 5.13333 30.3 3.9 28.9C2.7 27.5 2.1 25.6333 2.1 23.3C2.1 21.2667 2.65 19.4333 3.75 17.8C4.85 16.1333 6.5 14.8167 8.7 13.85C10.9333 12.8833 13.65 12.4 16.85 12.4C19.0833 12.4 21.2667 12.6667 23.4 13.2C25.5333 13.7333 27.4 14.5 29 15.5L26.5 21.65C23.2667 19.8167 20.0333 18.9 16.8 18.9C14.5333 18.9 12.85 19.2667 11.75 20C10.6833 20.7333 10.15 21.7 10.15 22.9C10.15 24.1 10.7667 25 12 25.6C13.2667 26.1667 15.1833 26.7333 17.75 27.3C20.4167 27.9333 22.6 28.5667 24.3 29.2C26 29.8333 27.45 30.8333 28.65 32.2C29.8833 33.5667 30.5 35.4167 30.5 37.75C30.5 39.75 29.9333 41.5833 28.8 43.25C27.7 44.8833 26.0333 46.1833 23.8 47.15C21.5667 48.1167 18.85 48.6 15.65 48.6Z"
          fill="#B8DBD9"/>
    <path d="M37.219 31.875H40.5417C41.4478 31.875 42.3169 32.2174 42.9576 32.8269C43.5984 33.4364 43.9583 34.263 43.9583 35.125V36.75C43.9583 37.612 44.3183 38.4386 44.9591 39.0481C45.5998 39.6576 46.4688 40 47.375 40C48.2812 40 49.1502 40.3424 49.7909 40.9519C50.4317 41.5614 50.7917 42.388 50.7917 43.25V48.0356L37.219 31.875ZM45.6667 20.3944V22.9375C45.6667 24.0149 46.1166 25.0483 46.9176 25.8101C47.7185 26.572 48.8048 27 49.9375 27H50.7917C51.6978 27 52.5669 27.3424 53.2076 27.9519C53.8484 28.5614 54.2083 29.388 54.2083 30.25C54.2083 31.112 54.5683 31.9386 55.2091 32.5481C55.8498 33.1576 56.7188 33.5 57.625 33.5C58.5312 33.5 59.4002 33.1576 60.0409 32.5481C60.6817 31.9386 61.0417 31.112 61.0417 30.25C61.0417 29.388 61.4016 28.5614 62.0424 27.9519C62.6831 27.3424 63.5522 27 64.4583 27H66.276L45.6667 20.3944ZM57.625 47.293V43.25C57.625 42.388 57.985 41.5614 58.6257 40.9519C59.2665 40.3424 60.1355 40 61.0417 40H66.276L57.625 47.293ZM67.875 33.5C67.875 35.4206 67.4773 37.3224 66.7046 39.0967C65.932 40.8711 64.7995 42.4834 63.3718 43.8414C61.9441 45.1995 60.2491 46.2768 58.3838 47.0117C56.5184 47.7467 54.5191 48.125 52.5 48.125C50.4809 48.125 48.4816 47.7467 46.6162 47.0117C44.7509 46.2768 43.0559 45.1995 41.6282 43.8414C40.2005 42.4834 39.068 40.8711 38.2954 39.0967C37.5227 37.3224 37.125 35.4206 37.125 33.5C37.125 29.6212 38.7449 25.9013 41.6282 23.1586C44.5116 20.4158 48.4223 18.875 52.5 18.875C56.5777 18.875 60.4884 20.4158 63.3718 23.1586C66.2551 25.9013 67.875 29.6212 67.875 33.5Z"
          stroke="#B8DBD9" stroke-width="2" stroke-linecap="round" stroke-linejoin="round"/>
</svg>
