<svg width="28" height="27" viewBox="0 0 28 27" fill="none" xmlns="http://www.w3.org/2000/svg">
<path d="M26.75 25.125L18.25 17.375L26.75 25.125ZM21.0833 10.9167C21.0833 12.104 20.8268 13.2798 20.3285 14.3768C19.8301 15.4737 19.0997 16.4705 18.1788 17.3101C17.258 18.1497 16.1648 18.8157 14.9616 19.2701C13.7585 19.7245 12.4689 19.9583 11.1667 19.9583C9.86439 19.9583 8.57487 19.7245 7.37172 19.2701C6.16858 18.8157 5.07537 18.1497 4.15452 17.3101C3.23368 16.4705 2.50322 15.4737 2.00486 14.3768C1.5065 13.2798 1.25 12.104 1.25 10.9167C1.25 8.51867 2.29479 6.21888 4.15452 4.52324C6.01426 2.8276 8.5366 1.875 11.1667 1.875C13.7967 1.875 16.3191 2.8276 18.1788 4.52324C20.0385 6.21888 21.0833 8.51867 21.0833 10.9167Z" stroke="black" stroke-width="2" stroke-linecap="round" stroke-linejoin="round"/>
</svg>
