<svg width="25" height="29" viewBox="0 0 25 29" fill="none" xmlns="http://www.w3.org/2000/svg">
<path d="M7.87492 20.3333H7.89034M7.87492 4.29167H4.79159C3.97383 4.29167 3.18958 4.59896 2.61134 5.14594C2.0331 5.69292 1.70825 6.43479 1.70825 7.20833V24.7083C1.70825 25.4819 2.0331 26.2237 2.61134 26.7707C3.18958 27.3177 3.97383 27.625 4.79159 27.625H20.2083C21.026 27.625 21.8103 27.3177 22.3885 26.7707C22.9667 26.2237 23.2916 25.4819 23.2916 24.7083V7.20833C23.2916 6.43479 22.9667 5.69292 22.3885 5.14594C21.8103 4.59896 21.026 4.29167 20.2083 4.29167H17.1249H7.87492ZM7.87492 4.29167C7.87492 5.06521 8.19977 5.80708 8.77801 6.35406C9.35624 6.90104 10.1405 7.20833 10.9583 7.20833H14.0416C14.8593 7.20833 15.6436 6.90104 16.2218 6.35406C16.8001 5.80708 17.1249 5.06521 17.1249 4.29167H7.87492ZM7.87492 4.29167C7.87492 3.51812 8.19977 2.77625 8.77801 2.22927C9.35624 1.68229 10.1405 1.375 10.9583 1.375H14.0416C14.8593 1.375 15.6436 1.68229 16.2218 2.22927C16.8001 2.77625 17.1249 3.51812 17.1249 4.29167H7.87492ZM12.4999 14.5H17.1249H12.4999ZM12.4999 20.3333H17.1249H12.4999ZM7.87492 14.5H7.89034H7.87492Z" stroke="#F4F4F9" stroke-width="2" stroke-linecap="round" stroke-linejoin="round"/>
</svg>
