<svg width="31" height="31" viewBox="0 0 31 31" fill="none" xmlns="http://www.w3.org/2000/svg">
<path d="M15.3424 0C6.88334 0 2.1875e-08 6.88334 0 15.3424C0 19.4418 1.59619 23.2939 4.49463 26.1902C7.39088 29.0886 11.2452 30.6848 15.3424 30.6848C23.8015 30.6848 30.6848 23.8015 30.6848 15.3424C30.6848 6.88334 23.8015 2.1875e-08 15.3424 0ZM15.3424 2.1875C22.594 2.1875 28.4973 8.08866 28.4973 15.3424C28.4973 18.7833 27.1554 21.9076 24.9854 24.2548C23.4825 22.4741 21.5412 21.164 19.3756 20.4181C20.8434 19.2128 21.8024 17.399 21.8024 15.3296C21.8024 11.7246 18.8695 8.79272 15.2142 8.79272C11.6114 8.79272 8.67737 11.7234 8.67737 15.3809C8.67737 17.413 9.63006 19.2108 11.0913 20.4095C8.96943 21.1358 7.0567 22.4051 5.56702 24.1223C3.39045 21.7051 2.1875 18.6193 2.1875 15.3424C2.1875 8.08866 8.09084 2.1875 15.3424 2.1875ZM15.2655 10.9802C17.6652 10.9802 19.6149 12.9309 19.6149 15.3809C19.6149 17.7302 17.7384 19.6408 15.4065 19.7174C15.3431 19.7174 15.2819 19.7046 15.2185 19.7046C15.1638 19.7046 15.1108 19.7152 15.0562 19.7174C12.7308 19.6299 10.8649 17.7249 10.8649 15.3296C10.8649 12.9321 12.8155 10.9802 15.2655 10.9802ZM15.0562 21.9006C15.1087 21.9028 15.1617 21.9177 15.2142 21.9177H15.2655C15.3136 21.9177 15.3541 21.9028 15.4022 21.9006C18.5063 21.9553 21.4038 23.364 23.3704 25.733C21.1479 27.459 18.3677 28.4973 15.3424 28.4973C12.3302 28.4973 9.47512 27.4833 7.15637 25.6305C9.12512 23.3205 11.998 21.9488 15.0562 21.9006Z" fill="#F4F4F9"/>
</svg>
