<svg width="359" height="403" viewBox="0 0 359 403" fill="none" xmlns="http://www.w3.org/2000/svg">
<g clip-path="url(#clip0_50_252)">
<path d="M200.618 95.7679H198.408V35.1082C198.408 25.7969 194.715 16.867 188.142 10.283C181.568 3.69891 172.653 1.1749e-05 163.357 1.11805e-10H35.0509C30.448 -1.16348e-05 25.8901 0.908076 21.6375 2.67242C17.3849 4.43676 13.5209 7.02279 10.2662 10.2829C7.01137 13.543 4.42954 17.4133 2.66806 21.6728C0.906577 25.9323 -5.08712e-05 30.4976 -6.10351e-05 35.1081V367.892C-6.53911e-05 372.502 0.906538 377.068 2.66801 381.327C4.42948 385.587 7.01131 389.457 10.2661 392.717C13.5209 395.977 17.3848 398.563 21.6374 400.328C25.89 402.092 30.4478 403 35.0508 403H163.357C172.653 403 181.568 399.301 188.142 392.717C194.715 386.133 198.408 377.203 198.408 367.892V138.946H200.618V95.7679Z" fill="#E6E6E6"/>
<path d="M164.771 9.13384H148.023C148.793 11.0252 149.087 13.0773 148.879 15.1093C148.671 17.1413 147.967 19.0909 146.83 20.7862C145.692 22.4816 144.156 23.8708 142.356 24.8313C140.556 25.7919 138.548 26.2944 136.509 26.2945H63.0041C60.9648 26.2944 58.9568 25.7919 57.157 24.8313C55.3572 23.8708 53.8209 22.4816 52.6834 20.7862C51.5459 19.0908 50.8421 17.1413 50.634 15.1093C50.4259 13.0773 50.7199 11.0252 51.4901 9.13379H35.8473C28.9051 9.13378 22.2472 11.8961 17.3383 16.813C12.4294 21.7299 9.67164 28.3986 9.67163 35.3521V367.648C9.67163 374.601 12.4294 381.27 17.3383 386.187C22.2472 391.104 28.905 393.866 35.8472 393.866H164.771C168.209 393.866 171.612 393.188 174.788 391.87C177.964 390.553 180.85 388.622 183.28 386.187C185.711 383.752 187.639 380.862 188.954 377.681C190.27 374.5 190.947 371.091 190.947 367.648V35.3522C190.947 31.9091 190.27 28.4998 188.954 25.3188C187.639 22.1379 185.711 19.2476 183.28 16.813C180.85 14.3784 177.964 12.4472 174.788 11.1296C171.612 9.81198 168.209 9.13383 164.771 9.13384Z" fill="white"/>
<path d="M180.308 270.125H25.7248C24.9659 270.124 24.2383 269.822 23.7017 269.284C23.165 268.747 22.8631 268.018 22.8622 267.258V228.85C22.8631 228.09 23.165 227.361 23.7017 226.823C24.2383 226.286 24.9659 225.983 25.7248 225.982H180.308C181.067 225.983 181.795 226.286 182.332 226.823C182.868 227.361 183.17 228.09 183.171 228.85V267.258C183.17 268.018 182.868 268.747 182.331 269.284C181.795 269.822 181.067 270.124 180.308 270.125ZM25.7248 227.129C25.2694 227.13 24.8328 227.311 24.5107 227.634C24.1887 227.956 24.0076 228.394 24.0072 228.85V267.258C24.0076 267.714 24.1887 268.152 24.5107 268.474C24.8328 268.797 25.2694 268.978 25.7248 268.979H180.308C180.764 268.978 181.201 268.797 181.523 268.474C181.845 268.152 182.026 267.714 182.026 267.258V228.85C182.026 228.394 181.845 227.956 181.523 227.634C181.201 227.311 180.764 227.13 180.308 227.129H25.7248Z" fill="#E6E6E6"/>
<path d="M45.763 260.096C52.4031 260.096 57.7861 254.705 57.7861 248.053C57.7861 241.402 52.4031 236.011 45.763 236.011C39.1228 236.011 33.7399 241.402 33.7399 248.053C33.7399 254.705 39.1228 260.096 45.763 260.096Z" fill="#E6E6E6"/>
<path d="M73.5308 240.025C73.0052 240.034 72.504 240.249 72.1353 240.625C71.7667 241 71.5601 241.506 71.5601 242.032C71.5601 242.559 71.7667 243.064 72.1353 243.44C72.504 243.815 73.0052 244.03 73.5308 244.039H167.998C168.53 244.049 169.044 243.848 169.427 243.479C169.81 243.11 170.031 242.603 170.041 242.071C170.051 241.539 169.85 241.024 169.481 240.641C169.113 240.257 168.607 240.036 168.076 240.025L168.064 240.025C168.042 240.025 168.02 240.025 167.998 240.025H73.5308Z" fill="#E6E6E6"/>
<path d="M73.5308 252.068C73.0052 252.077 72.504 252.292 72.1353 252.668C71.7667 253.043 71.5601 253.549 71.5601 254.075C71.5601 254.602 71.7667 255.107 72.1353 255.483C72.504 255.858 73.0052 256.073 73.5308 256.082H167.998C168.529 256.09 169.041 255.886 169.422 255.516C169.803 255.146 170.021 254.639 170.03 254.108C170.039 253.577 169.837 253.063 169.468 252.681C169.1 252.299 168.595 252.078 168.064 252.068C168.042 252.068 168.02 252.068 167.998 252.068H73.5308Z" fill="#E6E6E6"/>
<path d="M180.308 334.353H25.7248C24.9659 334.353 24.2383 334.05 23.7017 333.513C23.165 332.975 22.8631 332.246 22.8622 331.486V293.078C22.8631 292.318 23.165 291.589 23.7017 291.052C24.2383 290.514 24.9659 290.212 25.7248 290.211H180.308C181.067 290.212 181.795 290.514 182.332 291.052C182.868 291.589 183.17 292.318 183.171 293.078V331.487C183.17 332.247 182.868 332.975 182.331 333.513C181.795 334.05 181.067 334.353 180.308 334.353ZM25.7248 291.358C25.2694 291.358 24.8328 291.54 24.5107 291.862C24.1887 292.185 24.0076 292.622 24.0072 293.078V331.487C24.0076 331.943 24.1887 332.38 24.5107 332.703C24.8328 333.025 25.2694 333.207 25.7248 333.207H180.308C180.764 333.207 181.201 333.025 181.523 332.703C181.845 332.38 182.026 331.943 182.026 331.487V293.078C182.026 292.622 181.845 292.185 181.523 291.862C181.201 291.54 180.764 291.358 180.308 291.358H25.7248Z" fill="#E6E6E6"/>
<path d="M45.763 324.324C52.4031 324.324 57.7861 318.933 57.7861 312.281C57.7861 305.63 52.4031 300.239 45.763 300.239C39.1228 300.239 33.7399 305.63 33.7399 312.281C33.7399 318.933 39.1228 324.324 45.763 324.324Z" fill="#E6E6E6"/>
<path d="M73.5308 304.254C73.0052 304.262 72.504 304.478 72.1353 304.853C71.7667 305.229 71.5601 305.734 71.5601 306.261C71.5601 306.787 71.7667 307.293 72.1353 307.668C72.504 308.044 73.0052 308.259 73.5308 308.268H167.998C168.529 308.275 169.041 308.071 169.422 307.701C169.803 307.331 170.021 306.825 170.03 306.294C170.039 305.762 169.837 305.249 169.468 304.867C169.1 304.484 168.595 304.264 168.064 304.254C168.042 304.253 168.02 304.253 167.998 304.254H73.5308Z" fill="#E6E6E6"/>
<path d="M73.5308 316.297C73.0052 316.305 72.504 316.521 72.1353 316.896C71.7667 317.272 71.5601 317.777 71.5601 318.304C71.5601 318.83 71.7667 319.336 72.1353 319.711C72.504 320.087 73.0052 320.302 73.5308 320.311H167.998C168.529 320.318 169.041 320.114 169.422 319.744C169.803 319.374 170.021 318.868 170.03 318.337C170.039 317.805 169.837 317.292 169.468 316.91C169.1 316.527 168.595 316.307 168.064 316.297C168.042 316.296 168.02 316.296 167.998 316.297H73.5308Z" fill="#E6E6E6"/>
<path d="M99.7635 190.422C85.3443 190.428 71.5133 184.697 61.3132 174.488C51.113 164.28 45.3792 150.431 45.3732 135.989V135.943C45.3732 135.829 45.3732 135.709 45.3799 135.595C45.5457 105.76 69.9435 81.4634 99.7635 81.4634C114.189 81.4617 128.024 87.1999 138.225 97.4156C148.426 107.631 154.158 121.488 154.16 135.936C154.162 150.385 148.433 164.243 138.234 174.461C128.035 184.679 114.201 190.42 99.7759 190.422H99.7635V190.422ZM99.7635 82.6091C85.7062 82.6406 72.2292 88.2271 62.2606 98.1548C52.2921 108.082 46.6374 121.549 46.5253 135.629C46.5193 135.751 46.5193 135.851 46.5193 135.941C46.5179 146.491 49.6398 156.804 55.4902 165.576C61.3405 174.348 69.6565 181.186 79.3865 185.224C89.1165 189.263 99.8236 190.32 110.154 188.264C120.484 186.207 129.973 181.128 137.421 173.669C144.87 166.211 149.943 156.707 151.999 146.361C154.055 136.014 153.002 125.289 148.972 115.542C144.943 105.795 138.119 97.4641 129.362 91.602C120.605 85.7399 110.31 82.6104 99.7779 82.6091H99.7635Z" fill="#E6E6E6"/>
<path d="M174.207 256.294C186.42 256.294 196.32 246.378 196.32 234.145C196.32 221.912 186.42 211.995 174.207 211.995C161.994 211.995 152.093 221.912 152.093 234.145C152.093 246.378 161.994 256.294 174.207 256.294Z" fill="white"/>
<path d="M166.526 244.11C166.488 244.11 166.451 244.109 166.412 244.109H154.527C153.018 244.085 151.58 243.468 150.522 242.392C149.463 241.315 148.87 239.865 148.869 238.354C148.869 236.843 149.461 235.393 150.518 234.315C151.576 233.238 153.014 232.62 154.522 232.595H166.418C166.476 232.594 166.54 232.594 166.603 232.595C168.12 232.616 169.567 233.237 170.629 234.323C171.691 235.408 172.281 236.87 172.271 238.39C172.261 239.91 171.652 241.364 170.576 242.436C169.499 243.507 168.044 244.109 166.526 244.11Z" fill="#2F4550"/>
<path d="M359 401.652H179.863V402.893H359V401.652Z" fill="#3F3D56"/>
<path d="M190.9 296.656C190.759 296.436 190.642 296.203 190.552 295.958L187.697 288.302C187.365 287.408 187.4 286.418 187.796 285.55C188.191 284.682 188.914 284.006 189.806 283.671L253.517 259.843C254.409 259.51 255.398 259.545 256.264 259.941C257.131 260.337 257.806 261.061 258.14 261.955L260.994 269.612C261.159 270.055 261.236 270.526 261.219 270.998C261.202 271.471 261.093 271.935 260.897 272.365C260.701 272.795 260.423 273.182 260.077 273.504C259.732 273.827 259.327 274.077 258.885 274.243L195.175 298.071C194.408 298.358 193.566 298.374 192.789 298.116C192.012 297.859 191.345 297.344 190.9 296.656Z" fill="#2F4550"/>
<path d="M253.314 257.865L227.406 268.212C226.59 268.458 225.899 269.01 225.478 269.752C225.057 270.494 224.937 271.371 225.143 272.199L228.15 284.257C228.269 284.733 228.491 285.177 228.802 285.557C229.113 285.937 229.503 286.243 229.946 286.453C230.389 286.664 230.873 286.773 231.363 286.774C231.853 286.775 232.337 286.667 232.781 286.458L258.76 274.21C259.583 273.901 260.25 273.277 260.615 272.476C260.98 271.675 261.014 270.762 260.708 269.937L257.586 259.817C257.277 258.991 256.654 258.322 255.853 257.956C255.052 257.59 254.139 257.557 253.314 257.865Z" fill="#2F2E41"/>
<path d="M300.726 332.986C299.913 333.079 299.092 332.892 298.399 332.455C297.706 332.018 297.183 331.357 296.916 330.582L274.739 266.188C274.586 265.741 274.521 265.269 274.55 264.797C274.578 264.325 274.699 263.863 274.906 263.438C275.112 263.014 275.4 262.633 275.754 262.32C276.107 262.007 276.518 261.766 276.965 261.612L284.678 258.947C285.579 258.636 286.566 258.696 287.423 259.114C288.279 259.532 288.935 260.274 289.247 261.176L311.424 325.57C311.733 326.472 311.673 327.461 311.256 328.319C310.838 329.177 310.099 329.834 309.198 330.146L301.485 332.811C301.239 332.896 300.985 332.955 300.726 332.986Z" fill="#2F4550"/>
<path d="M290.9 260.074L299.411 286.678C299.741 287.466 299.756 288.35 299.452 289.148C299.148 289.946 298.549 290.596 297.78 290.963L286.579 296.311C286.137 296.522 285.653 296.632 285.163 296.634C284.673 296.636 284.188 296.528 283.745 296.32C283.301 296.112 282.909 295.808 282.596 295.429C282.284 295.051 282.059 294.608 281.938 294.132L274.845 266.264C274.559 265.431 274.615 264.519 275 263.727C275.384 262.935 276.066 262.328 276.897 262.039L286.679 258.015C287.511 257.728 288.423 257.783 289.215 258.17C290.006 258.556 290.612 259.24 290.9 260.074Z" fill="#2F2E41"/>
<path d="M265.129 402.017H256.97C256.017 402.016 255.104 401.637 254.43 400.962C253.757 400.287 253.378 399.372 253.376 398.418V330.3C253.378 329.346 253.757 328.431 254.43 327.756C255.104 327.081 256.017 326.702 256.97 326.701H265.129C266.082 326.702 266.995 327.081 267.669 327.756C268.343 328.431 268.722 329.346 268.723 330.3V398.418C268.722 399.372 268.343 400.287 267.669 400.962C266.995 401.637 266.082 402.016 265.129 402.017Z" fill="#2F2E41"/>
<path d="M281.268 402.017H273.108C272.156 402.016 271.242 401.637 270.568 400.962C269.895 400.287 269.516 399.372 269.515 398.418V330.3C269.516 329.346 269.895 328.431 270.568 327.756C271.242 327.081 272.156 326.702 273.108 326.701H281.268C282.221 326.702 283.134 327.081 283.808 327.756C284.481 328.431 284.86 329.346 284.861 330.3V398.418C284.86 399.372 284.481 400.287 283.808 400.962C283.134 401.637 282.221 402.016 281.268 402.017Z" fill="#2F2E41"/>
<path d="M287.992 338.308H250.918C249.892 338.307 248.908 337.898 248.183 337.171C247.457 336.445 247.049 335.459 247.048 334.432V274.105C247.048 268.152 249.409 262.444 253.611 258.235C257.813 254.026 263.512 251.661 269.455 251.661C275.398 251.661 281.097 254.026 285.299 258.235C289.502 262.444 291.862 268.152 291.862 274.105V334.432C291.861 335.459 291.453 336.445 290.728 337.171C290.002 337.898 289.018 338.307 287.992 338.308Z" fill="#CCCCCC"/>
<path d="M293.573 353.065H274.777V246.661L275.126 246.757C280.419 248.212 285.09 251.367 288.423 255.736C291.755 260.106 293.564 265.45 293.573 270.948V353.065Z" fill="#2F2E41"/>
<path d="M262.606 353.065H243.809V270.948C243.819 265.45 245.628 260.106 248.96 255.736C252.292 251.367 256.963 248.212 262.257 246.757L262.606 246.661V353.065Z" fill="#2F2E41"/>
<path d="M269.175 239.183C285.515 239.183 298.762 225.914 298.762 209.547C298.762 193.179 285.515 179.911 269.175 179.911C252.834 179.911 239.587 193.179 239.587 209.547C239.587 225.914 252.834 239.183 269.175 239.183Z" fill="#2F4550"/>
<path d="M302.625 202.724C302.625 202.724 304.284 156.763 282.723 171.714C282.723 171.714 270.284 129.907 239.878 192.48L231.033 201.339C231.033 201.339 270.837 195.802 307.877 212.968L302.625 202.724Z" fill="#2F2E41"/>
<path d="M269.626 224.223C267.798 224.173 265.524 224.109 263.771 222.827C263.249 222.429 262.821 221.923 262.515 221.342C262.21 220.761 262.034 220.12 262.002 219.464C261.97 218.998 262.047 218.531 262.225 218.099C262.404 217.668 262.679 217.283 263.031 216.976C263.946 216.202 265.282 216.02 266.723 216.444L265.23 205.521L266.326 205.371L268.08 218.212L267.165 217.791C266.105 217.304 264.649 217.056 263.744 217.822C263.522 218.022 263.349 218.271 263.239 218.549C263.128 218.827 263.083 219.127 263.107 219.425C263.134 219.913 263.265 220.39 263.492 220.823C263.72 221.255 264.037 221.634 264.423 221.932C265.787 222.93 267.6 223.059 269.657 223.117L269.626 224.223Z" fill="#2F2E41"/>
<path d="M259.813 206.463H253.858V207.57H259.813V206.463Z" fill="#2F2E41"/>
<path d="M278.609 206.463H272.655V207.57H278.609V206.463Z" fill="#2F2E41"/>
<path d="M203.207 299.481C202.409 299.852 201.496 299.89 200.67 299.587C199.844 299.284 199.172 298.665 198.802 297.865L179.723 256.676C179.353 255.877 179.315 254.963 179.617 254.135C179.92 253.308 180.538 252.635 181.336 252.264C182.134 251.893 183.046 251.855 183.872 252.158C184.698 252.461 185.37 253.08 185.741 253.879L204.82 295.069C205.19 295.868 205.228 296.782 204.926 297.609C204.623 298.437 204.005 299.11 203.207 299.481Z" fill="#3F3D56"/>
<path d="M183.605 255.16C183.018 255.16 182.456 254.927 182.041 254.511C181.626 254.096 181.393 253.533 181.393 252.945V224.731H153.752C153.165 224.731 152.603 224.497 152.188 224.082C151.773 223.667 151.54 223.103 151.54 222.516C151.54 221.928 151.773 221.365 152.188 220.95C152.603 220.534 153.165 220.301 153.752 220.301H183.605C184.191 220.301 184.754 220.534 185.168 220.95C185.583 221.365 185.816 221.928 185.816 222.516V252.945C185.816 253.533 185.583 254.096 185.168 254.511C184.754 254.927 184.191 255.16 183.605 255.16Z" fill="#2F4550"/>
<path d="M184.128 258.291C179.367 260.504 174.058 261.253 168.872 260.443C163.686 259.633 158.857 257.301 154.994 253.742C151.132 250.183 148.409 245.557 147.172 240.448C145.934 235.34 146.237 229.978 148.041 225.042C149.846 220.105 153.071 215.816 157.31 212.715C161.548 209.615 166.61 207.843 171.853 207.624C177.097 207.405 182.288 208.748 186.77 211.484C191.251 214.22 194.822 218.225 197.031 222.994C199.985 229.39 200.285 236.698 197.866 243.315C195.447 249.933 190.506 255.318 184.128 258.291ZM164.583 216.097C161.013 217.757 158.014 220.439 155.965 223.806C153.916 227.173 152.911 231.072 153.075 235.012C153.239 238.951 154.566 242.753 156.887 245.937C159.208 249.121 162.42 251.544 166.117 252.9C169.813 254.255 173.827 254.483 177.653 253.553C181.478 252.623 184.942 250.578 187.607 247.677C190.272 244.775 192.018 241.147 192.624 237.251C193.231 233.356 192.67 229.367 191.013 225.791C188.787 220.999 184.754 217.287 179.799 215.47C174.845 213.653 169.372 213.879 164.583 216.097Z" fill="#3F3D56"/>
</g>
<defs>
<clipPath id="clip0_50_252">
<rect width="359" height="403" fill="white"/>
</clipPath>
</defs>
</svg>
