<svg width="327" height="429" viewBox="0 0 327 429" fill="none" xmlns="http://www.w3.org/2000/svg">
    <path d="M326.147 428.85H0V0H326.147V428.85Z" fill="white"/>
    <path d="M326.147 428.85H0V0H326.147V428.85ZM2.90314 425.946H323.244V2.90312H2.90314V425.946Z" fill="#E4E4E4"/>
    <path d="M276.047 108.479H49.0192V123.614H276.047V108.479Z" fill="#E4E4E4"/>
    <path d="M246.857 54.4248H100.911V61.9924H246.857V54.4248Z" fill="#E4E4E4"/>
    <path d="M276.047 141.992H49.0192V157.127H276.047V141.992Z" fill="#E4E4E4"/>
    <path d="M276.047 175.506H49.0192V190.641H276.047V175.506Z" fill="#E4E4E4"/>
    <path d="M60.9111 71.7214C68.673 71.7214 74.9652 65.4292 74.9652 57.6674C74.9652 49.9055 68.673 43.6133 60.9111 43.6133C53.1493 43.6133 46.8571 49.9055 46.8571 57.6674C46.8571 65.4292 53.1493 71.7214 60.9111 71.7214Z"
          fill="#2F4550"/>
    <path d="M276.047 225.722H46.8571V365.181H276.047V225.722Z" fill="#2F4550"/>
    <path d="M59.7809 384.75C58.3631 383.329 56.4391 382.53 54.432 382.528C52.425 382.526 50.4993 383.322 49.0788 384.74C47.6582 386.157 46.859 388.082 46.8571 390.089C46.8551 392.096 47.6505 394.021 49.0684 395.442L59.7601 406.154L70.4727 395.463C71.1761 394.761 71.7343 393.927 72.1155 393.009C72.4967 392.091 72.6934 391.108 72.6944 390.114C72.6954 389.12 72.5006 388.136 72.1212 387.217C71.7417 386.299 71.1851 385.464 70.4831 384.76C69.7811 384.057 68.9474 383.499 68.0296 383.118C67.1118 382.736 66.128 382.54 65.1342 382.539C64.1404 382.538 63.1562 382.733 62.2376 383.112C61.3191 383.491 60.4843 384.048 59.7809 384.75V384.75Z"
          fill="#FF6582"/>
</svg>
